#N canvas 341 79 1569 846 10;
#X obj 635 4 tgl 40 0 empty ON On 17 7 0 10 -204786 -1 -1 1 1;
#X obj 637 87 counter;
#X floatatom 636 149 5 0 0 0 - - tempo;
#X obj 636 129 % 8;
#X floatatom 637 109 5 0 0 0 - - -;
#X obj 235 333 tgl 32 1 play1 empty empty 17 7 0 10 -262144 -1 -1 0
2;
#X obj 235 202 hradio 32 1 0 8 select tempo empty 0 -8 0 10 -262144
-1 -1 5;
#X floatatom 676 49 5 0 500 0 - metro -;
#X obj 101 203 hsl 128 30 700 100 0 0 metro empty Metro -2 -8 0 10
-262144 -1 -1 4700 1;
#N canvas 478 171 1120 762 bass 0;
#X obj 141 647 dac~;
#X obj 15 111 vline~;
#X msg 314 18 stop;
#X floatatom 17 241 5 0 16000 0 - - -;
#X obj 71 215 hsl 128 15 0 50 0 1 empty BassCarrierFrequency Carrier_frequenies
-2 -8 0 10 -262144 -1 -1 11881 1;
#X obj 90 124 hsl 128 15 0 1600 0 0 empty BassModulatorFrequency modulator_Frequency
-2 -8 0 10 -262144 -1 -1 0 1;
#X floatatom 45 137 5 0 0 0 - - -;
#X obj 91 167 hsl 128 15 0 126 0 0 empty BassModulatorVolume Modulator_volume
-2 -8 0 10 -262144 -1 -1 0 1;
#X obj -31 280 osc~;
#X obj 7 211 *~ 126;
#X floatatom 295 270 5 0 1 0 - - -;
#X obj 299 248 hsl 128 15 0 1 0 0 empty BassVolume Bass_Volume -2 -8
0 10 -262144 -1 -1 6770 1;
#X floatatom 410 295 5 0 1 0 Overal_Volume Volume -;
#X obj 118 569 *~;
#X obj 135 368 *~;
#X obj 294 295 *~;
#X floatatom -258 339 5 0 0 0 - - -;
#X obj -255 307 hsl 128 15 0 1000 0 0 empty BassHipLop BassHipLop -2
-8 0 10 -262144 -1 -1 0 1;
#X floatatom -262 410 5 0 0 0 - - -;
#X obj -62 512 hip~;
#X floatatom -307 408 5 0 0 0 - - -;
#X obj -281 455 spigot~;
#X obj -29 307 throw~ HipLopPass;
#X obj -30 348 catch~ HipLopPass;
#X obj -26 256 +~ 12;
#X floatatom 357 405 5 0 1000 0 - - -;
#X obj 342 519 *~;
#X floatatom 381 504 5 0 1 0 - - -;
#X obj 373 469 hsl 128 15 0 1 0 0 empty BassEcoVolume Bass_Eco_Volume
-2 -8 0 10 -262144 -1 -1 0 1;
#X obj 359 384 hsl 128 15 0 1000 0 0 empty BassEco Eco_delay -2 -8
0 10 -262144 -1 -1 0 1;
#X obj 357 428 vd~ bassDelay 2000;
#X obj -50 584 delwrite~ bassDelay 2000;
#X obj 13 178 phasor~ 14;
#X floatatom -37 1 5 0 0 0 - adsrBassMultipy -;
#X obj -37 24 \$4;
#X obj -104 134 \$3;
#X obj -144 136 \$2;
#X floatatom -172 167 5 0 0 0 - - -;
#X floatatom -136 170 5 0 0 0 - - -;
#X msg 262 96 $f1 \, $f2 $f3;
#X obj -170 136 \$1;
#X obj -150 17 r adsrBass;
#X msg 234 49 1 200 \, 0 1 200;
#X obj -183 201 bng 15 250 50 0 empty bangBass empty 17 7 0 10 -262144
-1 -1;
#X obj -181 251 print;
#X floatatom -100 168 5 0 0 0 - - -;
#X obj -180 221 pack f f f;
#X msg 11 78 \$1 \, \$2 \$3;
#X obj -117 44 r adsrBassMultipy;
#X obj -117 72 expr 100 * $f4;
#X obj -261 373 < 500;
#X obj -305 373 > 500;
#X obj 34 653 tabwrite~ Bass;
#X obj 32 608 tgl 15 0 empty ON empty 17 7 0 10 -262144 -1 -1 1 1;
#X obj 35 632 metro 100;
#X obj 160 565 *~;
#X connect 1 0 14 1;
#X connect 2 0 42 0;
#X connect 3 0 24 1;
#X connect 4 0 3 0;
#X connect 5 0 6 0;
#X connect 6 0 32 0;
#X connect 7 0 9 1;
#X connect 8 0 22 0;
#X connect 9 0 24 0;
#X connect 10 0 15 0;
#X connect 11 0 10 0;
#X connect 12 0 15 1;
#X connect 13 0 0 0;
#X connect 13 0 0 1;
#X connect 13 0 52 0;
#X connect 14 0 13 1;
#X connect 14 0 55 0;
#X connect 15 0 14 0;
#X connect 16 0 19 1;
#X connect 16 0 50 0;
#X connect 16 0 51 0;
#X connect 17 0 16 0;
#X connect 18 0 21 1;
#X connect 19 0 13 0;
#X connect 19 0 31 0;
#X connect 20 0 21 1;
#X connect 21 0 19 0;
#X connect 23 0 21 0;
#X connect 24 0 8 0;
#X connect 25 0 30 0;
#X connect 26 0 55 1;
#X connect 27 0 26 1;
#X connect 28 0 27 0;
#X connect 29 0 25 0;
#X connect 30 0 26 0;
#X connect 32 0 9 0;
#X connect 33 0 34 0;
#X connect 34 0 49 3;
#X connect 35 0 45 0;
#X connect 37 0 46 0;
#X connect 38 0 46 1;
#X connect 39 0 1 0;
#X connect 40 0 37 0;
#X connect 41 0 40 0;
#X connect 41 0 36 0;
#X connect 43 0 46 0;
#X connect 45 0 46 2;
#X connect 46 0 44 0;
#X connect 46 0 47 0;
#X connect 47 0 1 0;
#X connect 48 0 49 0;
#X connect 49 0 35 0;
#X connect 50 0 18 0;
#X connect 51 0 20 0;
#X connect 53 0 54 0;
#X connect 54 0 52 0;
#X connect 55 0 0 0;
#X connect 55 0 0 1;
#X restore 726 22 pd bass;
#N canvas 274 111 1421 837 snare 0;
#X obj 243 662 dac~;
#X obj 248 603 *~;
#X floatatom 544 328 5 0 1 0 - - -;
#X obj 548 306 hsl 128 15 0 1 0 0 empty SnareVolume Snare_Volume -2
-8 0 10 -262144 -1 -1 5803 1;
#X obj 189 206 vline~;
#X obj 309 198 vline~;
#X floatatom 24 414 5 0 0 0 - - -;
#X obj 27 387 hsl 128 15 200 16000 0 0 empty SnareHipLop SnareHipLop
-2 -8 0 10 -262144 -1 -1 0 1;
#X obj 184 315 *~;
#X obj 308 281 *~;
#X obj 544 353 *~;
#X floatatom 655 353 5 0 1 0 Overal_Volume Volume -;
#X obj 88 490 lop~;
#X floatatom 20 485 5 0 0 0 - - -;
#X obj 79 426 spigot~;
#X obj 121 491 hip~;
#X floatatom -25 483 5 0 0 0 - - -;
#X obj 140 425 spigot~;
#X obj 74 621 delwrite~ snareDelay 2000;
#X floatatom 369 588 5 0 1000 0 - - -;
#X obj 363 687 *~;
#X floatatom 393 687 5 0 1 0 - - -;
#X obj 385 652 hsl 128 15 0 1 0 0 empty SnareEcoVolume Snare_Eco_Volume
-2 -8 0 10 -262144 -1 -1 0 1;
#X obj 369 611 vd~ snareDelay 2000;
#X obj 371 567 hsl 128 15 0 1000 0 0 empty SnareEco Eco_delay -2 -8
0 10 -262144 -1 -1 0 1;
#X floatatom 86 26 5 0 0 0 - adsrSnareMultipy -;
#X obj 86 49 \$4;
#X obj 19 159 \$3;
#X obj -21 161 \$2;
#X floatatom -49 192 5 0 0 0 - - -;
#X floatatom -13 195 5 0 0 0 - - -;
#X obj -47 161 \$1;
#X obj 261 9 bng 15 250 50 0 empty bangSnare empty 17 7 0 10 -262144
-1 -1;
#X obj -58 276 print;
#X floatatom 28 199 5 0 0 0 - - -;
#X obj -57 246 pack f f f;
#X obj 6 97 expr 100 * $f4;
#X obj -27 42 r adsrSnare;
#X obj 6 69 r adsrSnareMultipy;
#X msg 148 165 \$1 \, \$2 \$3;
#X obj 323 395 hsl 128 15 0 20 0 0 empty snareTremolo Snare_tremolo
-2 -8 0 10 -262144 -1 -1 0 1;
#X obj 319 466 *~ 0.5;
#X obj 319 443 +~ 1;
#X obj 319 419 osc~;
#X obj 338 513 *~;
#X obj 679 43 hsl 50 15 100 2400 0 0 empty empty empty -2 -8 0 10 -262144
-1 -1 0 1;
#X obj 676 83 hsl 50 15 1 40 0 0 empty empty 1-10 -2 -8 0 10 -262144
-1 -1 0 1;
#X obj 622 15 noise~;
#X obj 622 103 bp~ 1200 40;
#X floatatom 145 250 5 0 0 0 - - -;
#X obj 94 276 lop~ 5000;
#X obj 418 198 vline~;
#X obj 347 281 *~;
#X obj 248 373 +~;
#X msg 308 174 1 20 \, 0 100 30;
#X msg 417 173 1 20 \, 0 100 40;
#X obj 95 229 noise~;
#X obj 193 280 *~;
#X floatatom 244 225 5 0 0 0 - - -;
#X obj 206 253 osc~ 15;
#X obj 22 448 < 8000;
#X obj -28 447 > 8000;
#X floatatom 432 104 5 0 0 0 - - -;
#X floatatom 378 107 5 0 0 0 - - -;
#X obj 383 50 +~ 110;
#X obj 433 52 +~ 200;
#X obj 380 82 \$1;
#X obj 433 81 \$2;
#X obj 384 11 r SnarePitch;
#X obj 365 250 phasor~;
#X obj 307 255 osc~;
#X obj 434 136 expr $f1 + 100;
#X obj 346 137 expr \$1 + 200;
#X obj 347 330 *~ 0.3;
#X obj 165 687 metro 100;
#X obj 163 662 tgl 15 0 empty ON empty 17 7 0 10 -262144 -1 -1 1 1
;
#X obj 164 712 tabwrite~ Snare;
#X connect 1 0 0 0;
#X connect 1 0 0 1;
#X connect 1 0 76 0;
#X connect 2 0 10 0;
#X connect 3 0 2 0;
#X connect 4 0 57 0;
#X connect 5 0 9 1;
#X connect 6 0 12 1;
#X connect 6 0 15 1;
#X connect 6 0 60 0;
#X connect 6 0 61 0;
#X connect 7 0 6 0;
#X connect 8 0 14 0;
#X connect 8 0 17 0;
#X connect 9 0 53 0;
#X connect 10 0 44 1;
#X connect 11 0 10 1;
#X connect 12 0 18 0;
#X connect 12 0 1 0;
#X connect 13 0 17 1;
#X connect 14 0 12 0;
#X connect 15 0 18 0;
#X connect 15 0 1 0;
#X connect 16 0 14 1;
#X connect 17 0 15 0;
#X connect 19 0 23 0;
#X connect 20 0 17 0;
#X connect 20 0 14 0;
#X connect 21 0 20 1;
#X connect 22 0 21 0;
#X connect 23 0 20 0;
#X connect 24 0 19 0;
#X connect 25 0 26 0;
#X connect 26 0 36 3;
#X connect 27 0 34 0;
#X connect 29 0 35 0;
#X connect 30 0 35 1;
#X connect 31 0 29 0;
#X connect 32 0 35 0;
#X connect 32 0 54 0;
#X connect 32 0 55 0;
#X connect 34 0 35 2;
#X connect 35 0 33 0;
#X connect 35 0 39 0;
#X connect 36 0 27 0;
#X connect 37 0 31 0;
#X connect 37 0 28 0;
#X connect 38 0 36 0;
#X connect 39 0 4 0;
#X connect 40 0 43 0;
#X connect 41 0 44 0;
#X connect 42 0 41 0;
#X connect 43 0 42 0;
#X connect 44 0 1 1;
#X connect 45 0 48 1;
#X connect 46 0 48 2;
#X connect 47 0 48 0;
#X connect 49 0 50 1;
#X connect 50 0 8 0;
#X connect 51 0 52 1;
#X connect 52 0 73 0;
#X connect 53 0 1 0;
#X connect 54 0 5 0;
#X connect 55 0 51 0;
#X connect 56 0 50 0;
#X connect 57 0 8 1;
#X connect 58 0 59 1;
#X connect 59 0 57 1;
#X connect 60 0 13 0;
#X connect 61 0 16 0;
#X connect 62 0 71 0;
#X connect 63 0 72 0;
#X connect 66 0 63 0;
#X connect 67 0 62 0;
#X connect 68 0 64 0;
#X connect 68 0 65 0;
#X connect 68 0 66 0;
#X connect 68 0 67 0;
#X connect 69 0 52 0;
#X connect 70 0 9 0;
#X connect 71 0 69 0;
#X connect 72 0 70 0;
#X connect 73 0 53 1;
#X connect 74 0 76 0;
#X connect 75 0 74 0;
#X restore 726 3 pd snare;
#X obj 788 344 bng 15 250 50 0 bangBass empty empty 17 7 0 10 -262144
-1 -1;
#X obj 631 274 spigot;
#X obj 267 333 tgl 32 1 play2 empty empty 17 7 0 10 -262144 -1 -1 6
6;
#X obj 299 333 tgl 32 1 play3 empty empty 17 7 0 10 -262144 -1 -1 0
6;
#X obj 331 333 tgl 32 1 play4 empty empty 17 7 0 10 -262144 -1 -1 6
6;
#X obj 363 333 tgl 32 1 play5 empty empty 17 7 0 10 -262144 -1 -1 6
6;
#X obj 395 333 tgl 32 1 play6 empty empty 17 7 0 10 -262144 -1 -1 0
6;
#X obj 427 333 tgl 32 1 play7 empty empty 17 7 0 10 -262144 -1 -1 0
6;
#X obj 459 333 tgl 32 1 play8 empty empty 17 7 0 10 -262144 -1 -1 0
6;
#X floatatom 636 249 5 0 0 0 - play1 -;
#X obj 676 274 spigot;
#X floatatom 680 247 5 0 0 0 - play2 -;
#X obj 720 274 spigot;
#X floatatom 724 249 5 0 0 0 - play3 -;
#X obj 765 274 spigot;
#X floatatom 769 249 5 0 0 0 - play4 -;
#X obj 810 274 spigot;
#X floatatom 814 250 5 0 0 0 - play5 -;
#X obj 855 274 spigot;
#X floatatom 858 251 5 0 0 0 - play6 -;
#X obj 898 275 spigot;
#X floatatom 900 250 5 0 0 0 - play7 -;
#X obj 943 275 spigot;
#X floatatom 946 250 5 0 0 0 - play8 -;
#X floatatom 636 170 5 0 0 0 - select -;
#X obj 235 296 tgl 32 1 play17 empty empty 17 7 0 10 -262144 -1 -1
2 2;
#X obj 267 296 tgl 32 1 play18 empty empty 17 7 0 10 -262144 -1 -1
0 6;
#X obj 299 296 tgl 32 1 play19 empty empty 17 7 0 10 -262144 -1 -1
6 6;
#X obj 331 296 tgl 32 1 play20 empty empty 17 7 0 10 -262144 -1 -1
6 6;
#X obj 363 296 tgl 32 1 play21 empty empty 17 7 0 10 -262144 -1 -1
0 6;
#X obj 395 296 tgl 32 1 play22 empty empty 17 7 0 10 -262144 -1 -1
6 6;
#X obj 427 296 tgl 32 1 play23 empty empty 17 7 0 10 -262144 -1 -1
6 6;
#X obj 459 296 tgl 32 1 play24 empty empty 17 7 0 10 -262144 -1 -1
0 6;
#X obj 631 414 spigot;
#X floatatom 634 391 5 0 0 0 - play17 -;
#X obj 676 414 spigot;
#X floatatom 679 389 5 0 0 0 - play18 -;
#X obj 720 414 spigot;
#X floatatom 725 389 5 0 0 0 - play19 -;
#X obj 765 414 spigot;
#X floatatom 770 389 5 0 0 0 - play20 -;
#X obj 810 414 spigot;
#X floatatom 813 388 5 0 0 0 - play21 -;
#X obj 855 414 spigot;
#X floatatom 858 388 5 0 0 0 - play22 -;
#X obj 898 415 spigot;
#X floatatom 902 388 5 0 0 0 - play23 -;
#X obj 943 415 spigot;
#X floatatom 945 388 5 0 0 0 - play24 -;
#X obj 794 474 bng 15 250 50 0 bangSnare empty empty 17 7 0 10 -262144
-1 -1;
#X obj 637 51 metro;
#X obj -35 203 hsl 128 30 0 0.99 0 0 Volume empty Volume -2 -8 0 10
-262144 -1 -1 5700 1;
#X obj 201 298 vsl 30 27 0 0.99 0 0 SnareVolume empty empty 0 -9 0
8 -204786 -1 -1 1200 1;
#X obj 201 335 vsl 30 27 0 0.99 0 0 BassVolume empty empty 0 -9 0 8
-204786 -1 -1 1400 1;
#X obj 117 332 hsl 32 32 0 126 0 0 BassModulatorVolume empty Md_Vol
-2 -8 0 10 -261682 -1 -1 0 1;
#X obj 31 332 hsl 32 32 1 200 0 0 BassModulatorFrequency empty Md_Frq
-2 -8 0 10 -261682 -1 -1 0 1;
#X obj 161 296 hsl 32 32 1000 17000 0 0 SnareHipLop empty empty -2
-8 0 10 -260097 -1 -1 0 1;
#X obj 161 332 hsl 32 32 100 1000 0 0 BassHipLop empty empty -2 -8
0 10 -260097 -1 -1 0 1;
#X obj -12 296 hsl 32 32 0 1 0 0 SnareEcoVolume empty empty -2 -8 0
10 -204800 -1 -1 0 1;
#X obj -54 296 hsl 32 32 0 1000 0 0 SnareEco empty empty -2 -8 0 10
-204800 -1 -1 0 1;
#X obj -12 331 hsl 32 32 0 1 0 0 BassEcoVolume empty empty -2 -8 0
10 -204800 -1 -1 0 1;
#X obj -54 331 hsl 32 32 1 1000 0 0 BassEco empty empty -2 -8 0 10
-204800 -1 -1 0 1;
#X obj 235 259 tgl 32 1 play33 empty empty 17 7 0 10 -262144 -1 -1
0 2;
#X obj 267 259 tgl 32 1 play34 empty empty 17 7 0 10 -262144 -1 -1
6 6;
#X obj 299 259 tgl 32 1 play35 empty empty 17 7 0 10 -262144 -1 -1
0 6;
#X obj 331 259 tgl 32 1 play36 empty empty 17 7 0 10 -262144 -1 -1
0 6;
#X obj 363 259 tgl 32 1 play37 empty empty 17 7 0 10 -262144 -1 -1
6 6;
#X obj 395 259 tgl 32 1 play38 empty empty 17 7 0 10 -262144 -1 -1
0 6;
#X obj 427 259 tgl 32 1 play39 empty empty 17 7 0 10 -262144 -1 -1
6 6;
#X obj 459 259 tgl 32 1 play40 empty empty 17 7 0 10 -262144 -1 -1
6 6;
#X obj 869 360 s adsrBass;
#X obj -135 332 hsl 32 32 1 10 0 1 adsrBassMultipy empty ADSR -2 -8
0 10 -232576 -1 -1 1200 1;
#N canvas 683 175 1026 760 flute 0;
#X obj 133 618 dac~;
#X obj 83 187 line~;
#X obj 145 514 *~;
#X obj 180 199 vline~;
#X obj 155 -75 bng 15 250 50 0 empty bang3 empty 17 7 0 10 -262144
-1 -1;
#X msg 185 117 0;
#X msg 216 117 1;
#X obj 73 269 +~;
#X obj -32 189 line~;
#X obj 117 283 *~;
#X obj 81 221 osc~;
#X obj 9 220 osc~;
#X floatatom 314 226 5 0 1 0 - - -;
#X obj 318 204 hsl 128 15 0 1 0 0 empty FluteVolume Flute_Volume -2
-8 0 10 -262144 -1 -1 3385 1;
#X floatatom 429 251 5 0 1 0 Overal_Volume Volume -;
#X obj 313 251 *~;
#X floatatom -118 317 5 0 0 0 - - -;
#X obj -115 290 hsl 128 15 200 16000 0 0 empty FluteHipLop FluteHipLop
-2 -8 0 10 -262144 -1 -1 0 1;
#X obj -54 393 lop~;
#X floatatom -122 388 5 0 0 0 - - -;
#X obj -63 329 spigot~;
#X obj -21 394 hip~;
#X floatatom -167 386 5 0 0 0 - - -;
#X obj -121 351 < 8000;
#X obj -166 351 > 8000;
#X obj -2 328 spigot~;
#X msg 88 102 300 700;
#X floatatom -69 104 5 0 0 0 - - -;
#X msg -29 105 432 500;
#X floatatom 44 103 5 0 0 0 - - -;
#X floatatom -96 160 5 0 0 0 - - -;
#X floatatom -14 56 5 0 0 0 - FlutePitch -;
#X obj -96 134 expr $F1 + $F2;
#X floatatom 3 162 5 0 0 0 - - -;
#X obj 3 134 expr $F1 + $F2;
#X floatatom -51 55 5 0 0 0 - FlutePitch -;
#X floatatom 24 -80 5 0 0 0 - adsrFluteMultipy -;
#X obj 24 -57 \$4;
#X obj -95 -29 \$3;
#X obj -140 -32 \$2;
#X floatatom -168 -1 5 0 0 0 - - -;
#X floatatom -132 2 5 0 0 0 - - -;
#X obj -166 -32 \$1;
#X obj -177 83 print;
#X floatatom -91 5 5 0 0 0 - - -;
#X obj -176 53 pack f f f;
#X obj -96 -52 expr 100 * $f4;
#X obj -98 -80 r adsrFluteMultipy;
#X obj -176 -79 r adsrFlute;
#X msg 243 149 \$1 \, \$2 \$3;
#X floatatom 276 453 5 0 1000 0 - - -;
#X obj 270 552 *~;
#X floatatom 300 552 5 0 1 0 - - -;
#X obj 291 518 hsl 128 15 0 1 0 0 empty FluteEcoVolume Flute_Eco_Volume
-2 -8 0 10 -262144 -1 -1 0 1;
#X obj 278 432 hsl 128 15 0 1000 0 0 empty FluteEco Eco_delay -2 -8
0 10 -262144 -1 -1 0 1;
#X obj 276 476 vd~ fluteDelay 2000;
#X obj -64 543 delwrite~ fluteDelay 2000;
#X obj 20 618 tabwrite~ Flute;
#X obj 16 567 tgl 15 0 empty ON empty 17 7 0 10 -262144 -1 -1 1 1;
#X obj 17 587 metro 100;
#X connect 1 0 10 0;
#X connect 2 0 0 0;
#X connect 2 0 0 1;
#X connect 2 0 57 0;
#X connect 3 0 9 0;
#X connect 4 0 29 0;
#X connect 4 0 26 0;
#X connect 4 0 27 0;
#X connect 4 0 28 0;
#X connect 5 0 3 0;
#X connect 6 0 3 0;
#X connect 7 0 20 0;
#X connect 7 0 25 0;
#X connect 8 0 11 0;
#X connect 9 0 2 1;
#X connect 10 0 7 0;
#X connect 11 0 7 0;
#X connect 12 0 15 0;
#X connect 13 0 12 0;
#X connect 14 0 15 1;
#X connect 15 0 9 1;
#X connect 16 0 18 1;
#X connect 16 0 23 0;
#X connect 16 0 24 0;
#X connect 16 0 21 1;
#X connect 17 0 16 0;
#X connect 18 0 2 0;
#X connect 18 0 56 0;
#X connect 19 0 25 1;
#X connect 20 0 18 0;
#X connect 21 0 2 0;
#X connect 21 0 56 0;
#X connect 22 0 20 1;
#X connect 23 0 19 0;
#X connect 24 0 22 0;
#X connect 25 0 21 0;
#X connect 26 0 1 0;
#X connect 27 0 32 0;
#X connect 28 0 8 0;
#X connect 29 0 34 0;
#X connect 30 0 8 0;
#X connect 31 0 32 1;
#X connect 32 0 30 0;
#X connect 33 0 1 0;
#X connect 34 0 33 0;
#X connect 35 0 34 1;
#X connect 36 0 37 0;
#X connect 37 0 46 3;
#X connect 38 0 44 0;
#X connect 40 0 45 0;
#X connect 41 0 45 1;
#X connect 42 0 40 0;
#X connect 44 0 45 2;
#X connect 45 0 43 0;
#X connect 45 0 49 0;
#X connect 46 0 38 0;
#X connect 47 0 46 0;
#X connect 48 0 42 0;
#X connect 48 0 39 0;
#X connect 49 0 3 0;
#X connect 50 0 55 0;
#X connect 51 0 25 0;
#X connect 51 0 20 0;
#X connect 52 0 51 1;
#X connect 53 0 52 0;
#X connect 54 0 50 0;
#X connect 55 0 51 0;
#X connect 58 0 59 0;
#X connect 59 0 57 0;
#X restore 726 42 pd flute;
#X obj 630 530 spigot;
#X floatatom 633 507 5 0 0 0 - play33 -;
#X obj 675 530 spigot;
#X floatatom 678 505 5 0 0 0 - play34 -;
#X obj 719 530 spigot;
#X floatatom 724 505 5 0 0 0 - play35 -;
#X obj 764 530 spigot;
#X floatatom 769 505 5 0 0 0 - play36 -;
#X obj 809 530 spigot;
#X floatatom 812 504 5 0 0 0 - play37 -;
#X obj 854 530 spigot;
#X floatatom 857 504 5 0 0 0 - play38 -;
#X obj 897 531 spigot;
#X floatatom 901 504 5 0 0 0 - play39 -;
#X obj 942 531 spigot;
#X floatatom 944 504 5 0 0 0 - play40 -;
#X obj 793 590 bng 15 250 50 0 bang3 empty empty 17 7 0 10 -262144
-1 -1;
#X obj 201 261 vsl 30 27 0 0.99 0 0 FluteVolume empty Volume 0 -9 0
8 -204786 -1 -1 700 1;
#X obj 161 259 hsl 32 32 100 17000 0 0 FluteHipLop empty LopHip -2
-8 0 10 -260097 -1 -1 0 1;
#X obj -94 260 hsl 32 32 0 1000 0 1 FlutePitch empty Pitch -2 -8 0
10 -261234 -1 -1 1500 1;
#X obj 74 332 hsl 32 32 0 50 0 0 BassCarrierFrequency empty Cr_Frq
-2 -8 0 10 -261682 -1 -1 0 1;
#X msg 868 334 1 0 500;
#X text 587 276 Bass;
#X text 581 413 Snare;
#X text 586 528 Flute;
#X obj -135 296 hsl 32 32 0 10 0 1 adsrSnareMultipy empty empty -2
-8 0 10 -232576 -1 -1 800 1;
#X msg 884 448 1 0 500;
#X obj 885 474 s adsrSnare;
#X obj -135 260 hsl 32 32 1 10 0 1 adsrFluteMultipy empty ADSR -2 -8
0 10 -232576 -1 -1 0 1;
#X msg 887 574 1 0 500;
#X obj 888 600 s adsrFlute;
#X obj -12 260 hsl 32 32 0 1 0 0 FluteEcoVolume empty EcoVol -2 -8
0 10 -204800 -1 -1 0 1;
#X obj -54 260 hsl 32 32 0 1000 0 0 FluteEco empty Eco -2 -8 0 10 -204800
-1 -1 0 1;
#X obj -82 193 tgl 40 0 ON empty On/Off 4 -8 0 10 -204786 -1 -1 1 1
;
#X obj -175 260 hsl 32 32 0 20 0 1 fluteTremolo empty Tremolo -2 -8
0 8 -262130 -1 -1 0 1;
#X obj -175 296 hsl 32 32 0 20 0 1 snareTremolo empty empty -2 -8 0
8 -262130 -1 -1 0 1;
#X obj -94 297 hsl 32 32 0 100 0 1 SnarePitch empty  -2 -8 0 10 -261234
-1 -1 3100 1;
#N canvas 0 0 450 300 (subpatch) 0;
#X array Snare 400 float 5;
#A 0 0 0 0 0 0 0 0 0 0 0 0 0 0 0 0 0 0 0 0 0 0 0 0 0 0 0 0 0 0 0 0
0 0 0 0 0 0 0 0 0 0 0 0 0 0 0 0 0 0 0 0 0 0 0 0 0 0 0 0 0 0 0 0 0 0
0 0 0 0 0 0 0 0 0 0 0 0 0 0 0 0 0 0 0 0 0 0 0 0 0 0 0 0 0 0 0 0 0 0
0 0 0 0 0 0 0 0 0 0 0 0 0 0 0 0 0 0 0 0 0 0 0 0 0 0 0 0 0 0 0 0 0 0
0 0 0 0 0 0 0 0 0 0 0 0 0 0 0 0 0 0 0 0 0 0 0 0 0 0 0 0 0 0 0 0 0 0
0 0 0 0 0 0 0 0 0 0 0 0 0 0 0 0 0 0 0 0 0 0 0 0 0 0 0 0 0 0 0 0 0 0
0 0 0 0 0 0 0 0 0 0 0 0 0 0 0 0 0 0 0 0 0 0 0 0 0 0 0 0 0 0 0 0 0 0
0 0 0 0 0 0 0 0 0 0 0 0 0 0 0 0 0 0 0 0 0 0 0 0 0 0 0 0 0 0 0 0 0 0
0 0 0 0 0 0 0 0 0 0 0 0 0 0 0 0 0 0 0 0 0 0 0 0 0 0 0 0 0 0 0 0 0 0
0 0 0 0 0 0 0 0 0 0 0 0 0 0 0 0 0 0 0 0 0 0 0 0 0 0 0 0 0 0 0 0 0 0
0 0 0 0 0 0 0 0 0 0 0 0 0 0 0 0 0 0 0 0 0 0 0 0 0 0 0 0 0 0 0 0 0 0
0 0 0 0 0 0 0 0 0 0 0 0 0 0 0 0 0 0 0 0 0 0 0 0 0 0 0 0 0;
#X coords 0 1 399 -1 140 140 1 0 0;
#X restore 209 35 graph;
#N canvas 0 0 450 300 (subpatch) 0;
#X array Bass 400 float 5;
#A 0 0 0 0 0 0 0 0 0 0 0 0 0 0 0 0 0 0 0 0 0 0 0 0 0 0 0 0 0 0 0 0
0 0 0 0 0 0 0 0 0 0 0 0 0 0 0 0 0 0 0 0 0 0 0 0 0 0 0 0 0 0 0 0 0 0
0 0 0 0 0 0 0 0 0 0 0 0 0 0 0 0 0 0 0 0 0 0 0 0 0 0 0 0 0 0 0 0 0 0
0 0 0 0 0 0 0 0 0 0 0 0 0 0 0 0 0 0 0 0 0 0 0 0 0 0 0 0 0 0 0 0 0 0
0 0 0 0 0 0 0 0 0 0 0 0 0 0 0 0 0 0 0 0 0 0 0 0 0 0 0 0 0 0 0 0 0 0
0 0 0 0 0 0 0 0 0 0 0 0 0 0 0 0 0 0 0 0 0 0 0 0 0 0 0 0 0 0 0 0 0 0
0 0 0 0 0 0 0 0 0 0 0 0 0 0 0 0 0 0 0 0 0 0 0 0 0 0 0 0 0 0 0 0 0 0
0 0 0 0 0 0 0 0 0 0 0 0 0 0 0 0 0 0 0 0 0 0 0 0 0 0 0 0 0 0 0 0 0 0
0 0 0 0 0 0 0 0 0 0 0 0 0 0 0 0 0 0 0 0 0 0 0 0 0 0 0 0 0 0 0 0 0 0
0 0 0 0 0 0 0 0 0 0 0 0 0 0 0 0 0 0 0 0 0 0 0 0 0 0 0 0 0 0 0 0 0 0
0 0 0 0 0 0 0 0 0 0 0 0 0 0 0 0 0 0 0 0 0 0 0 0 0 0 0 0 0 0 0 0 0 0
0 0 0 0 0 0 0 0 0 0 0 0 0 0 0 0 0 0 0 0 0 0 0 0 0 0 0 0 0;
#X coords 0 1 399 -1 140 140 1 0 0;
#X restore 352 35 graph;
#N canvas 0 0 450 300 (subpatch) 0;
#X array Flute 400 float 5;
#A 0 0 0 0 0 0 0 0 0 0 0 0 0 0 0 0 0 0 0 0 0 0 0 0 0 0 0 0 0 0 0 0
0 0 0 0 0 0 0 0 0 0 0 0 0 0 0 0 0 0 0 0 0 0 0 0 0 0 0 0 0 0 0 0 0 0
0 0 0 0 0 0 0 0 0 0 0 0 0 0 0 0 0 0 0 0 0 0 0 0 0 0 0 0 0 0 0 0 0 0
0 0 0 0 0 0 0 0 0 0 0 0 0 0 0 0 0 0 0 0 0 0 0 0 0 0 0 0 0 0 0 0 0 0
0 0 0 0 0 0 0 0 0 0 0 0 0 0 0 0 0 0 0 0 0 0 0 0 0 0 0 0 0 0 0 0 0 0
0 0 0 0 0 0 0 0 0 0 0 0 0 0 0 0 0 0 0 0 0 0 0 0 0 0 0 0 0 0 0 0 0 0
0 0 0 0 0 0 0 0 0 0 0 0 0 0 0 0 0 0 0 0 0 0 0 0 0 0 0 0 0 0 0 0 0 0
0 0 0 0 0 0 0 0 0 0 0 0 0 0 0 0 0 0 0 0 0 0 0 0 0 0 0 0 0 0 0 0 0 0
0 0 0 0 0 0 0 0 0 0 0 0 0 0 0 0 0 0 0 0 0 0 0 0 0 0 0 0 0 0 0 0 0 0
0 0 0 0 0 0 0 0 0 0 0 0 0 0 0 0 0 0 0 0 0 0 0 0 0 0 0 0 0 0 0 0 0 0
0 0 0 0 0 0 0 0 0 0 0 0 0 0 0 0 0 0 0 0 0 0 0 0 0 0 0 0 0 0 0 0 0 0
0 0 0 0 0 0 0 0 0 0 0 0 0 0 0 0 0 0 0 0 0 0 0 0 0 0 0 0 0;
#X coords 0 1 399 -1 140 140 1 0 0;
#X restore 66 35 graph;
#X obj 235 369 tgl 32 1 play49 empty empty 17 7 0 10 -262144 -1 -1
2 2;
#X obj 267 369 tgl 32 1 play50 empty empty 17 7 0 10 -262144 -1 -1
0 6;
#X obj 299 369 tgl 32 1 play51 empty empty 17 7 0 10 -262144 -1 -1
0 6;
#X obj 331 369 tgl 32 1 play52 empty empty 17 7 0 10 -262144 -1 -1
0 6;
#X obj 363 369 tgl 32 1 play53 empty empty 17 7 0 10 -262144 -1 -1
0 6;
#X obj 395 369 tgl 32 1 play54 empty empty 17 7 0 10 -262144 -1 -1
0 6;
#X obj 427 369 tgl 32 1 play55 empty empty 17 7 0 10 -262144 -1 -1
0 6;
#X obj 459 369 tgl 32 1 play56 empty empty 17 7 0 10 -262144 -1 -1
0 6;
#N canvas 0 0 450 300 (subpatch) 0;
#X array Voice 100 float 3;
#A 0 0 0 0 0 0 0 0 0 0 0 0 0 0 0 0 0 0 0 0 0 0 0 0 0 0 0 0 0 0 0 0
0 0 0 0 0 0 0 0 0 0 0 0 0 0 0 0 0 0 0 0 0 0 0 0 0 0 0 0 0 0 0 0 0 0
0 0 0 0 0 0 0 0 0 0 0 0 0 0 0 0 0 0 0 0 0 0 0 0 0 0 0 0 0 0 0 0 0 0
0;
#X coords 0 1 99 -1 200 140 1 0 0;
#X restore -137 35 graph;
#X obj 636 661 spigot;
#X floatatom 639 638 5 0 0 0 - play49 -;
#X obj 681 661 spigot;
#X floatatom 684 636 5 0 0 0 - play50 -;
#X obj 725 661 spigot;
#X floatatom 730 636 5 0 0 0 - play51 -;
#X obj 770 661 spigot;
#X floatatom 775 636 5 0 0 0 - play52 -;
#X obj 815 661 spigot;
#X floatatom 818 635 5 0 0 0 - play53 -;
#X obj 860 661 spigot;
#X floatatom 863 635 5 0 0 0 - play54 -;
#X obj 903 662 spigot;
#X floatatom 907 635 5 0 0 0 - play55 -;
#X obj 948 662 spigot;
#X floatatom 950 635 5 0 0 0 - play56 -;
#X obj 799 721 bng 15 250 50 0 bangVoice empty empty 17 7 0 10 -262144
-1 -1;
#X text 592 659 Flute;
#X msg 893 705 1 0 500;
#X obj 635 193 sel 0 1 2 3 4 5 6 7 8 9 10 11 12 13 14 15 16;
#N canvas 905 107 876 744 voice 0;
#X obj 425 -269 adc~;
#X obj 88 160 metro 100;
#X obj 153 159 bng 15 250 50 0 empty empty empty 17 7 0 10 -262144
-1 -1;
#X obj 289 -198 writesf~;
#X obj 88 192 tabwrite~ Voice;
#X msg 278 -266 open voice.wav \, start;
#X msg 361 -240 stop;
#X obj 426 -239 *~ 10;
#X msg 143 -131 open voice.wav \, 1;
#X obj 143 -103 readsf~;
#X obj 198 197 dac~;
#X floatatom 290 -65 5 0 1 0 - - -;
#X obj 294 -87 hsl 128 15 0 1 0 0 empty VoiceVolume Voice_Volume -2
-8 0 10 -262144 -1 -1 12573 1;
#X obj 293 -34 *~;
#X floatatom 401 -40 5 0 1 0 Overal_Volume Volume -;
#X obj 170 83 *~;
#X obj 281 -366 bng 15 250 50 0 empty bangVoice Play_Voice 17 7 0 10
-262144 -1 -1;
#X floatatom 125 -408 5 0 0 0 - adsrVoiceMultipy -;
#X obj 125 -385 \$4;
#X obj 57 -259 \$3;
#X obj 12 -262 \$2;
#X floatatom -16 -231 5 0 0 0 - - -;
#X floatatom 20 -228 5 0 0 0 - - -;
#X obj -14 -262 \$1;
#X obj -25 -147 print;
#X floatatom 61 -225 5 0 0 0 - - -;
#X obj -24 -177 pack f f f;
#X obj 39 -326 expr 100 * $f4;
#X obj 82 -31 vline~;
#X msg 82 -58 \$1 \, \$2 \$3;
#X obj 284 -345 bng 15 250 50 0 empty startVoice Record_Voice 17 7
0 10 -262144 -1 -1;
#X obj 288 -325 bng 15 250 50 0 empty stopVoice Stop_Record 17 7 0
10 -262144 -1 -1;
#X obj 425 -352 spigot~;
#X obj 465 -377 tgl 15 0 empty recordVoice Record_voice 17 7 0 10 -262144
-1 -1 0 1;
#X floatatom -149 -70 5 0 0 0 - - -;
#X obj -146 -97 hsl 128 15 200 16000 0 0 empty VoiceHipLop VoiceHipLop
-2 -8 0 10 -262144 -1 -1 2458 1;
#X obj -85 6 lop~;
#X floatatom -153 1 5 0 0 0 - - -;
#X obj -94 -58 spigot~;
#X obj -52 7 hip~;
#X floatatom -198 -1 5 0 0 0 - - -;
#X obj -152 -36 < 8000;
#X obj -197 -36 > 8000;
#X obj -33 -59 spigot~;
#X obj 6 -381 r adsrVoice;
#X obj 37 -353 r adsrVoiceMultipy;
#X obj 193 17 *~;
#X floatatom 290 74 5 0 1000 0 - - -;
#X obj 284 173 *~;
#X floatatom 314 173 5 0 1 0 - - -;
#X obj 306 138 hsl 128 15 0 1 0 0 empty VoiceEcoVolume Voice_Eco_Volume
-2 -8 0 10 -262144 -1 -1 12700 1;
#X obj 292 53 hsl 128 15 0 1000 0 0 empty VoiceEco Eco_delay -2 -8
0 10 -262144 -1 -1 10654 1;
#X obj 290 97 vd~ voiceDelay 2000;
#X obj -86 104 delwrite~ voiceDelay 2000;
#X connect 0 0 7 0;
#X connect 1 0 4 0;
#X connect 2 0 1 0;
#X connect 5 0 3 0;
#X connect 6 0 3 0;
#X connect 7 0 3 0;
#X connect 8 0 9 0;
#X connect 8 0 2 0;
#X connect 9 0 38 0;
#X connect 9 0 43 0;
#X connect 9 0 53 0;
#X connect 11 0 13 0;
#X connect 12 0 11 0;
#X connect 13 0 46 1;
#X connect 14 0 13 1;
#X connect 15 0 10 1;
#X connect 15 0 10 0;
#X connect 15 0 4 0;
#X connect 16 0 8 0;
#X connect 17 0 18 0;
#X connect 18 0 27 3;
#X connect 19 0 25 0;
#X connect 21 0 26 0;
#X connect 22 0 26 1;
#X connect 23 0 21 0;
#X connect 25 0 26 2;
#X connect 26 0 24 0;
#X connect 26 0 29 0;
#X connect 27 0 19 0;
#X connect 28 0 46 0;
#X connect 29 0 28 0;
#X connect 30 0 5 0;
#X connect 31 0 6 0;
#X connect 33 0 32 1;
#X connect 33 0 30 0;
#X connect 34 0 36 1;
#X connect 34 0 41 0;
#X connect 34 0 42 0;
#X connect 34 0 39 1;
#X connect 35 0 34 0;
#X connect 36 0 15 0;
#X connect 37 0 43 1;
#X connect 38 0 36 0;
#X connect 39 0 15 0;
#X connect 40 0 38 1;
#X connect 41 0 37 0;
#X connect 42 0 40 0;
#X connect 43 0 39 0;
#X connect 44 0 23 0;
#X connect 44 0 20 0;
#X connect 45 0 27 0;
#X connect 46 0 15 1;
#X connect 47 0 52 0;
#X connect 48 0 43 0;
#X connect 48 0 38 0;
#X connect 49 0 48 1;
#X connect 50 0 49 0;
#X connect 51 0 47 0;
#X connect 52 0 48 0;
#X restore 726 61 pd voice;
#X obj 201 371 vsl 30 27 0 0.99 0 0 VoiceVolume empty empty 0 -9 0
8 -204786 -1 -1 2600 1;
#X obj 894 731 s adsrVoice;
#X obj -211 36 bng 32 250 50 0 startVoice empty Start 2 -7 0 10 -261234
-1 -1;
#X obj -173 35 bng 32 250 50 0 stopVoice empty Stop 2 -7 0 10 -261234
-1 -1;
#X obj 161 368 hsl 32 32 200 16000 0 0 VoiceHipLop empty empty -2 -8
0 10 -260097 -1 -1 600 1;
#X text -214 67 Record Voice;
#X obj -135 368 hsl 32 32 1 20 0 1 adsrVoiceMultipy empty empty -2
-8 0 10 -232576 -1 -1 3100 1;
#X obj -12 367 hsl 32 32 0 1 0 0 VoiceEcoVolume empty empty -2 -8 0
10 -204800 -1 -1 3100 1;
#X obj -54 367 hsl 32 32 1 1000 0 0 VoiceEco empty empty -2 -8 0 10
-204800 -1 -1 2600 1;
#X text -34 481 1 Turn on/off 2 Slide Volume \, metro and ADSR sliders
3 For voice to record press start \, then stop;
#X connect 0 0 61 0;
#X connect 1 0 4 0;
#X connect 3 0 2 0;
#X connect 4 0 3 0;
#X connect 7 0 61 1;
#X connect 11 0 105 0;
#X connect 12 0 11 0;
#X connect 20 0 12 1;
#X connect 21 0 11 0;
#X connect 22 0 21 1;
#X connect 23 0 11 0;
#X connect 24 0 23 1;
#X connect 25 0 11 0;
#X connect 26 0 25 1;
#X connect 27 0 11 0;
#X connect 28 0 27 1;
#X connect 29 0 11 0;
#X connect 30 0 29 1;
#X connect 31 0 11 0;
#X connect 32 0 31 1;
#X connect 33 0 11 0;
#X connect 34 0 33 1;
#X connect 35 0 152 0;
#X connect 44 0 60 0;
#X connect 45 0 44 1;
#X connect 46 0 60 0;
#X connect 47 0 46 1;
#X connect 48 0 60 0;
#X connect 49 0 48 1;
#X connect 50 0 60 0;
#X connect 51 0 50 1;
#X connect 52 0 60 0;
#X connect 53 0 52 1;
#X connect 54 0 60 0;
#X connect 55 0 54 1;
#X connect 56 0 60 0;
#X connect 57 0 56 1;
#X connect 58 0 60 0;
#X connect 59 0 58 1;
#X connect 60 0 110 0;
#X connect 61 0 1 0;
#X connect 84 0 100 0;
#X connect 85 0 84 1;
#X connect 86 0 100 0;
#X connect 87 0 86 1;
#X connect 88 0 100 0;
#X connect 89 0 88 1;
#X connect 90 0 100 0;
#X connect 91 0 90 1;
#X connect 92 0 100 0;
#X connect 93 0 92 1;
#X connect 94 0 100 0;
#X connect 95 0 94 1;
#X connect 96 0 100 0;
#X connect 97 0 96 1;
#X connect 98 0 100 0;
#X connect 99 0 98 1;
#X connect 100 0 113 0;
#X connect 105 0 81 0;
#X connect 110 0 111 0;
#X connect 113 0 114 0;
#X connect 133 0 149 0;
#X connect 134 0 133 1;
#X connect 135 0 149 0;
#X connect 136 0 135 1;
#X connect 137 0 149 0;
#X connect 138 0 137 1;
#X connect 139 0 149 0;
#X connect 140 0 139 1;
#X connect 141 0 149 0;
#X connect 142 0 141 1;
#X connect 143 0 149 0;
#X connect 144 0 143 1;
#X connect 145 0 149 0;
#X connect 146 0 145 1;
#X connect 147 0 149 0;
#X connect 148 0 147 1;
#X connect 149 0 151 0;
#X connect 151 0 155 0;
#X connect 152 0 12 0;
#X connect 152 0 44 0;
#X connect 152 0 84 0;
#X connect 152 0 133 0;
#X connect 152 1 21 0;
#X connect 152 1 46 0;
#X connect 152 1 86 0;
#X connect 152 1 135 0;
#X connect 152 2 23 0;
#X connect 152 2 48 0;
#X connect 152 2 88 0;
#X connect 152 2 137 0;
#X connect 152 3 25 0;
#X connect 152 3 50 0;
#X connect 152 3 90 0;
#X connect 152 3 139 0;
#X connect 152 4 27 0;
#X connect 152 4 52 0;
#X connect 152 4 92 0;
#X connect 152 4 141 0;
#X connect 152 5 29 0;
#X connect 152 5 54 0;
#X connect 152 5 94 0;
#X connect 152 5 143 0;
#X connect 152 6 31 0;
#X connect 152 6 56 0;
#X connect 152 6 96 0;
#X connect 152 6 145 0;
#X connect 152 7 33 0;
#X connect 152 7 58 0;
#X connect 152 7 98 0;
#X connect 152 7 147 0;
