#N canvas 790 196 1156 796 10;
#X obj 61 114 bng 15 250 50 0 empty empty empty 17 7 0 10 -262144 -1
-1;
#X obj 81 55 tgl 30 0 empty empty On 17 7 0 10 -204786 -1 -1 0 1;
#X obj 82 127 counter;
#X floatatom 97 209 5 0 0 0 - - tempo;
#X obj 452 209 sel 0 1 2 3 4 5 6 7;
#X obj 81 169 % 8;
#X floatatom 82 149 5 0 0 0 - - -;
#X obj 98 316 tgl 32 1 play1 empty empty 17 7 0 10 -262144 -1 -1 2
2;
#X obj 98 234 hradio 32 1 0 8 select tempo empty 0 -8 0 10 -262144
-1 -1 2;
#X floatatom 145 89 5 0 500 0 - - -;
#X obj 148 53 hsl 128 30 700 100 0 0 empty empty Metro -2 -8 0 10 -262144
-1 -1 6700 1;
#N canvas 326 397 1053 664 bass 0;
#X obj 116 605 dac~;
#X obj 15 111 vline~;
#X obj 16 52 bng 15 250 50 0 empty bang1 empty 17 7 0 10 -262144 -1
-1;
#X msg 97 48 stop;
#X floatatom 17 241 5 0 16000 0 - - -;
#X obj 71 215 hsl 128 15 0 1600 0 1 empty BassCarrierFrequency Carrier_frequenies
-2 -8 0 10 -262144 -1 -1 154 1;
#X obj 90 124 hsl 128 15 0 1600 0 0 empty BassModulatorFrequency modulator_Frequency
-2 -8 0 10 -262144 -1 -1 110 1;
#X floatatom 45 137 5 0 0 0 - - -;
#X obj 91 167 hsl 128 15 0 126 0 0 empty BassModulatorVolume Modulator_volume
-2 -8 0 10 -262144 -1 -1 12700 1;
#X obj -31 280 osc~;
#X obj 7 211 *~ 126;
#X floatatom 295 270 5 0 1 0 - - -;
#X obj 299 248 hsl 128 15 0 1 0 0 empty BassVolume Bass_Volume -2 -8
0 10 -262144 -1 -1 8792 1;
#X floatatom 410 295 5 0 1 0 Overal_Volume Volume -;
#X obj 118 569 *~;
#X obj 135 368 *~;
#X obj 294 295 *~;
#X floatatom -258 339 5 0 0 0 - - -;
#X obj -258 307 hsl 128 15 0 16000 0 0 empty BassHipLop BassHipLop
-2 -8 0 10 -262144 -1 -1 79 1;
#X floatatom -262 410 5 0 0 0 - - -;
#X obj -62 512 hip~;
#X floatatom -307 408 5 0 0 0 - - -;
#X obj -261 373 < 8000;
#X obj -306 373 > 8000;
#X obj -281 455 spigot~;
#X obj -29 307 throw~ HipLopPass;
#X obj -30 348 catch~ HipLopPass;
#X obj -26 256 +~ 12;
#X floatatom 357 405 5 0 1000 0 - - -;
#X obj 351 504 *~;
#X floatatom 381 504 5 0 1 0 - - -;
#X obj 373 469 hsl 128 15 0 1 0 0 empty BassEcoVolume Bass_Eco_Volume
-2 -8 0 10 -262144 -1 -1 0 1;
#X obj 359 384 hsl 128 15 0 1000 0 0 empty BassEco Eco_delay -2 -8
0 10 -262144 -1 -1 0 1;
#X obj 357 428 vd~ bassDelay 2000;
#X obj -50 584 delwrite~ bassDelay 2000;
#X obj 13 178 phasor~ 14;
#X msg 17 80 1 100 \, 0 1 200;
#X connect 1 0 15 0;
#X connect 2 0 36 0;
#X connect 3 0 36 0;
#X connect 4 0 27 1;
#X connect 5 0 4 0;
#X connect 6 0 7 0;
#X connect 7 0 35 0;
#X connect 8 0 10 1;
#X connect 9 0 25 0;
#X connect 10 0 27 0;
#X connect 11 0 16 0;
#X connect 12 0 11 0;
#X connect 13 0 16 1;
#X connect 14 0 0 0;
#X connect 14 0 0 1;
#X connect 15 0 14 1;
#X connect 16 0 15 1;
#X connect 17 0 22 0;
#X connect 17 0 23 0;
#X connect 17 0 20 1;
#X connect 18 0 17 0;
#X connect 19 0 24 1;
#X connect 20 0 14 0;
#X connect 20 0 34 0;
#X connect 21 0 24 1;
#X connect 22 0 19 0;
#X connect 23 0 21 0;
#X connect 24 0 20 0;
#X connect 26 0 24 0;
#X connect 27 0 9 0;
#X connect 28 0 33 0;
#X connect 29 0 14 0;
#X connect 30 0 29 1;
#X connect 31 0 30 0;
#X connect 32 0 28 0;
#X connect 33 0 29 0;
#X connect 35 0 10 0;
#X connect 36 0 1 0;
#X restore 677 75 pd bass;
#N canvas 179 125 814 812 snare 0;
#X obj 246 662 dac~;
#X obj 281 93 bng 15 250 50 0 empty bang2 empty 17 7 0 10 -262144 -1
-1;
#X obj 248 603 *~;
#X floatatom 435 264 5 0 1 0 - - -;
#X obj 439 242 hsl 128 15 0 1 0 0 empty SnareVolume Snare_Volume -2
-8 0 10 -262144 -1 -1 7815 1;
#X obj 210 197 vline~;
#X obj 79 222 noise~;
#X obj 81 295 *~;
#X obj 79 245 hip~ 1000;
#X obj 309 198 vline~;
#X floatatom 24 414 5 0 0 0 - - -;
#X obj 27 387 hsl 128 15 200 16000 0 0 empty SnareHipLop SnareHipLop
-2 -8 0 10 -262144 -1 -1 1234 1;
#X obj 184 315 *~;
#X obj 202 361 +~;
#X obj 281 307 *~;
#X msg 308 173 1 20 \, 0 1 50;
#X obj 79 270 lop~ 5000;
#X obj 111 296 osc~ 20;
#X msg 209 171 1 140 \, 0 1 140;
#X obj 278 234 phasor~ 80;
#X obj 435 289 *~;
#X floatatom 546 289 5 0 1 0 Overal_Volume Volume -;
#X obj 88 490 lop~;
#X floatatom 20 485 5 0 0 0 - - -;
#X obj 79 426 spigot~;
#X obj 121 491 hip~;
#X floatatom -25 483 5 0 0 0 - - -;
#X obj 21 448 < 8000;
#X obj -24 448 > 8000;
#X obj 140 425 spigot~;
#X obj 463 688;
#X msg 462 705;
#X obj 74 621 delwrite~ snareDelay 2000;
#X obj 430 742;
#X floatatom 527 414 5 0 1000 0 - - -;
#X obj 521 513 *~;
#X floatatom 551 513 5 0 1 0 - - -;
#X obj 543 478 hsl 128 15 0 1 0 0 empty SnareEcoVolume Snare_Eco_Volume
-2 -8 0 10 -262144 -1 -1 0 1;
#X obj 527 437 vd~ snareDelay 2000;
#X obj 529 393 hsl 128 15 0 1000 0 0 empty SnareEco Eco_delay -2 -8
0 10 -262144 -1 -1 0 1;
#X connect 1 0 18 0;
#X connect 1 0 15 0;
#X connect 2 0 0 0;
#X connect 2 0 0 1;
#X connect 3 0 20 0;
#X connect 4 0 3 0;
#X connect 5 0 12 1;
#X connect 6 0 8 0;
#X connect 7 0 12 0;
#X connect 8 0 16 0;
#X connect 9 0 14 1;
#X connect 10 0 22 1;
#X connect 10 0 27 0;
#X connect 10 0 28 0;
#X connect 10 0 25 1;
#X connect 11 0 10 0;
#X connect 12 0 13 0;
#X connect 13 0 24 0;
#X connect 13 0 29 0;
#X connect 14 0 13 0;
#X connect 15 0 9 0;
#X connect 16 0 7 0;
#X connect 17 0 7 1;
#X connect 18 0 5 0;
#X connect 19 0 14 0;
#X connect 20 0 2 1;
#X connect 21 0 20 1;
#X connect 22 0 2 0;
#X connect 22 0 32 0;
#X connect 23 0 29 1;
#X connect 24 0 22 0;
#X connect 25 0 2 0;
#X connect 25 0 32 0;
#X connect 26 0 24 1;
#X connect 27 0 23 0;
#X connect 28 0 26 0;
#X connect 29 0 25 0;
#X connect 34 0 38 0;
#X connect 35 0 2 0;
#X connect 36 0 35 1;
#X connect 37 0 36 0;
#X connect 38 0 35 0;
#X connect 39 0 34 0;
#X restore 677 56 pd snare;
#X obj 605 361 bng 15 250 50 0 bang1 empty empty 17 7 0 10 -262144
-1 -1;
#X obj 448 290 spigot;
#X obj 130 316 tgl 32 1 play2 empty empty 17 7 0 10 -262144 -1 -1 0
6;
#X obj 162 316 tgl 32 1 play3 empty empty 17 7 0 10 -262144 -1 -1 0
6;
#X obj 194 316 tgl 32 1 play4 empty empty 17 7 0 10 -262144 -1 -1 6
6;
#X obj 226 316 tgl 32 1 play5 empty empty 17 7 0 10 -262144 -1 -1 0
6;
#X obj 258 316 tgl 32 1 play6 empty empty 17 7 0 10 -262144 -1 -1 0
6;
#X obj 290 316 tgl 32 1 play7 empty empty 17 7 0 10 -262144 -1 -1 6
6;
#X obj 322 316 tgl 32 1 play8 empty empty 17 7 0 10 -262144 -1 -1 0
6;
#X floatatom 453 265 5 0 0 0 - play1 -;
#X obj 493 290 spigot;
#X floatatom 497 263 5 0 0 0 - play2 -;
#X obj 537 290 spigot;
#X floatatom 541 265 5 0 0 0 - play3 -;
#X obj 582 290 spigot;
#X floatatom 586 265 5 0 0 0 - play4 -;
#X obj 627 290 spigot;
#X floatatom 631 266 5 0 0 0 - play5 -;
#X obj 672 290 spigot;
#X floatatom 675 267 5 0 0 0 - play6 -;
#X obj 715 291 spigot;
#X floatatom 717 266 5 0 0 0 - play7 -;
#X obj 760 291 spigot;
#X floatatom 763 266 5 0 0 0 - play8 -;
#X floatatom 453 186 5 0 0 0 - select -;
#X obj 98 279 tgl 32 1 play17 empty empty 17 7 0 10 -262144 -1 -1 0
2;
#X obj 130 279 tgl 32 1 play18 empty empty 17 7 0 10 -262144 -1 -1
6 6;
#X obj 162 279 tgl 32 1 play19 empty empty 17 7 0 10 -262144 -1 -1
6 6;
#X obj 194 279 tgl 32 1 play20 empty empty 17 7 0 10 -262144 -1 -1
0 6;
#X obj 226 279 tgl 32 1 play21 empty empty 17 7 0 10 -262144 -1 -1
6 6;
#X obj 258 279 tgl 32 1 play22 empty empty 17 7 0 10 -262144 -1 -1
6 6;
#X obj 290 279 tgl 32 1 play23 empty empty 17 7 0 10 -262144 -1 -1
0 6;
#X obj 322 279 tgl 32 1 play24 empty empty 17 7 0 10 -262144 -1 -1
6 6;
#X obj 448 430 spigot;
#X floatatom 451 407 5 0 0 0 - play17 -;
#X obj 493 430 spigot;
#X floatatom 496 405 5 0 0 0 - play18 -;
#X obj 537 430 spigot;
#X floatatom 542 405 5 0 0 0 - play19 -;
#X obj 582 430 spigot;
#X floatatom 587 405 5 0 0 0 - play20 -;
#X obj 627 430 spigot;
#X floatatom 630 404 5 0 0 0 - play21 -;
#X obj 672 430 spigot;
#X floatatom 675 404 5 0 0 0 - play22 -;
#X obj 715 431 spigot;
#X floatatom 719 404 5 0 0 0 - play23 -;
#X obj 760 431 spigot;
#X floatatom 762 404 5 0 0 0 - play24 -;
#X obj 611 490 bng 15 250 50 0 bang2 empty empty 17 7 0 10 -262144
-1 -1;
#X obj 82 91 metro;
#X obj 288 52 hsl 128 30 0 1 0 0 Volume empty Volume -2 -8 0 10 -262144
-1 -1 4400 1;
#X obj 64 281 vsl 30 27 0 1 0 0 SnareVolume empty Volume 0 -9 0 8 -204786
-1 -1 1600 1;
#X obj 64 318 vsl 30 27 0 1 0 0 BassVolume empty empty 0 -9 0 8 -204786
-1 -1 1800 1;
#X obj -20 315 hsl 32 32 0 126 0 0 BassModulatorVolume empty Md_Vol
-2 -8 0 10 -261682 -1 -1 3100 1;
#X obj -106 315 hsl 32 32 1 200 0 0 BassModulatorFrequency empty Md_Frq
-2 -8 0 10 -261682 -1 -1 200 1;
#X obj -63 315 hsl 32 32 0 200 0 0 BassCarrierFrequency empty Cr_Frq
-2 -8 0 10 -261682 -1 -1 300 1;
#X obj 24 279 hsl 32 32 100 17000 0 0 SnareHipLop empty LopHip -2 -8
0 10 -260097 -1 -1 300 1;
#X obj 50 751 dac~;
#X obj 24 315 hsl 32 32 100 17000 0 0 BassHipLop empty empty -2 -8
0 10 -260097 -1 -1 0 1;
#X obj -149 279 hsl 32 32 0 1 0 0 SnareEcoVolume empty EcoVol -2 -8
0 10 -204800 -1 -1 0 1;
#X obj -191 279 hsl 32 32 1 1000 0 0 SnareEco empty Eco -2 -8 0 10
-204800 -1 -1 0 1;
#X obj -149 314 hsl 32 32 0 1 0 0 BassEcoVolume empty empty -2 -8 0
10 -204800 -1 -1 0 1;
#X obj -191 314 hsl 32 32 1 1000 0 0 BassEco empty empty -2 -8 0 10
-204800 -1 -1 0 1;
#X obj 98 354 tgl 32 1 play1 empty empty 17 7 0 10 -262144 -1 -1 0
2;
#X obj 130 354 tgl 32 1 play2 empty empty 17 7 0 10 -262144 -1 -1 0
6;
#X obj 162 354 tgl 32 1 play3 empty empty 17 7 0 10 -262144 -1 -1 0
6;
#X obj 194 354 tgl 32 1 play4 empty empty 17 7 0 10 -262144 -1 -1 0
6;
#X obj 226 354 tgl 32 1 play5 empty empty 17 7 0 10 -262144 -1 -1 0
6;
#X obj 258 354 tgl 32 1 play6 empty empty 17 7 0 10 -262144 -1 -1 0
6;
#X obj 290 354 tgl 32 1 play7 empty empty 17 7 0 10 -262144 -1 -1 0
6;
#X obj 322 354 tgl 32 1 play8 empty empty 17 7 0 10 -262144 -1 -1 0
6;
#X obj 59 586 line~;
#X obj 59 621 osc~ 200;
#X msg -6 550 stop;
#X obj 59 715 *~;
#X floatatom 146 660 5 0 1 0 - - -;
#X obj 156 598 vline~;
#X obj 120 441 bng 15 250 50 0 empty empty empty 17 7 0 10 -262144
-1 -1;
#X msg 161 516 0;
#X msg 192 516 1;
#X obj -20 621 osc~ 400;
#X obj 49 668 +~;
#X obj -56 588 line~;
#X obj 93 682 *~;
#X msg -93 504 1000;
#X msg 62 501 200 500;
#X msg -55 503 432 500;
#X msg 15 503 600;
#X msg 232 514 1 \, 0 500;
#X symbolatom 570 719 10 0 0 0 - - -;
#X floatatom 667 698 5 0 0 0 - - -;
#X msg 449 695 receive aSymbol;
#X msg 453 742;
#X msg 383 575 list adsr 1 2 3;
#X obj 379 632 s adsr;
#X obj 540 631 r adsr;
#X floatatom 571 686 5 0 0 0 - - -;
#X symbolatom 695 657 10 0 0 0 - - -;
#X connect 1 0 63 0;
#X connect 2 0 6 0;
#X connect 4 0 14 0;
#X connect 4 0 46 0;
#X connect 4 1 23 0;
#X connect 4 1 48 0;
#X connect 4 2 25 0;
#X connect 4 2 50 0;
#X connect 4 3 27 0;
#X connect 4 3 52 0;
#X connect 4 4 29 0;
#X connect 4 4 54 0;
#X connect 4 5 31 0;
#X connect 4 5 56 0;
#X connect 4 6 33 0;
#X connect 4 6 58 0;
#X connect 4 7 35 0;
#X connect 4 7 60 0;
#X connect 5 0 3 0;
#X connect 6 0 5 0;
#X connect 9 0 63 1;
#X connect 10 0 9 0;
#X connect 14 0 13 0;
#X connect 22 0 14 1;
#X connect 23 0 13 0;
#X connect 24 0 23 1;
#X connect 25 0 13 0;
#X connect 26 0 25 1;
#X connect 27 0 13 0;
#X connect 28 0 27 1;
#X connect 29 0 13 0;
#X connect 30 0 29 1;
#X connect 31 0 13 0;
#X connect 32 0 31 1;
#X connect 33 0 13 0;
#X connect 34 0 33 1;
#X connect 35 0 13 0;
#X connect 36 0 35 1;
#X connect 37 0 4 0;
#X connect 46 0 62 0;
#X connect 47 0 46 1;
#X connect 48 0 62 0;
#X connect 49 0 48 1;
#X connect 50 0 62 0;
#X connect 51 0 50 1;
#X connect 52 0 62 0;
#X connect 53 0 52 1;
#X connect 54 0 62 0;
#X connect 55 0 54 1;
#X connect 56 0 62 0;
#X connect 57 0 56 1;
#X connect 58 0 62 0;
#X connect 59 0 58 1;
#X connect 60 0 62 0;
#X connect 61 0 60 1;
#X connect 63 0 0 0;
#X connect 63 0 2 0;
#X connect 85 0 86 0;
#X connect 86 0 95 0;
#X connect 87 0 85 0;
#X connect 87 0 96 1;
#X connect 88 0 71 0;
#X connect 88 0 71 1;
#X connect 89 0 97 1;
#X connect 90 0 97 0;
#X connect 91 0 102 0;
#X connect 91 0 98 0;
#X connect 91 0 101 0;
#X connect 91 0 100 0;
#X connect 91 0 99 0;
#X connect 92 0 90 0;
#X connect 93 0 90 0;
#X connect 94 0 95 0;
#X connect 95 0 88 0;
#X connect 96 0 94 0;
#X connect 97 0 88 1;
#X connect 98 0 96 0;
#X connect 99 0 85 0;
#X connect 100 0 96 0;
#X connect 101 0 85 0;
#X connect 102 0 90 0;
#X connect 105 0 106 0;
#X connect 107 0 108 0;
#X connect 109 0 105 0;
#X connect 109 0 104 0;
#X connect 109 0 106 0;
#X connect 109 0 110 0;
#X connect 109 0 111 0;
