#N canvas 94 28 1681 988 10;
#X obj 635 4 tgl 40 0 empty ON On 17 7 0 10 -204786 -1 -1 1 1;
#X obj 637 87 counter;
#X floatatom 636 149 5 0 0 0 - - tempo;
#X obj 635 193 sel 0 1 2 3 4 5 6 7;
#X obj 636 129 % 8;
#X floatatom 637 109 5 0 0 0 - - -;
#X obj 205 363 tgl 32 1 play1 empty empty 17 7 0 10 -262144 -1 -1 2
2;
#X obj 205 232 hradio 32 1 0 8 select tempo empty 0 -8 0 10 -262144
-1 -1 4;
#X floatatom 676 49 5 0 500 0 - metro -;
#X obj 71 233 hsl 128 30 700 100 0 0 metro empty Metro -2 -8 0 10 -262144
-1 -1 12700 1;
#N canvas 499 171 1120 762 bass 0;
#X obj 116 605 dac~;
#X obj 15 111 vline~;
#X msg 314 18 stop;
#X floatatom 17 241 5 0 16000 0 - - -;
#X obj 71 215 hsl 128 15 0 50 0 1 empty BassCarrierFrequency Carrier_frequenies
-2 -8 0 10 -262144 -1 -1 6555 1;
#X obj 90 124 hsl 128 15 0 1600 0 0 empty BassModulatorFrequency modulator_Frequency
-2 -8 0 10 -262144 -1 -1 314 1;
#X floatatom 45 137 5 0 0 0 - - -;
#X obj 91 167 hsl 128 15 0 126 0 0 empty BassModulatorVolume Modulator_volume
-2 -8 0 10 -262144 -1 -1 12700 1;
#X obj -31 280 osc~;
#X obj 7 211 *~ 126;
#X floatatom 295 270 5 0 1 0 - - -;
#X obj 299 248 hsl 128 15 0 1 0 0 empty BassVolume Bass_Volume -2 -8
0 10 -262144 -1 -1 3385 1;
#X floatatom 410 295 5 0 1 0 Overal_Volume Volume -;
#X obj 118 569 *~;
#X obj 135 368 *~;
#X obj 294 295 *~;
#X floatatom -258 339 5 0 0 0 - - -;
#X obj -255 307 hsl 128 15 0 1000 0 0 empty BassHipLop BassHipLop -2
-8 0 10 -262144 -1 -1 1270 1;
#X floatatom -262 410 5 0 0 0 - - -;
#X obj -62 512 hip~;
#X floatatom -307 408 5 0 0 0 - - -;
#X obj -281 455 spigot~;
#X obj -29 307 throw~ HipLopPass;
#X obj -30 348 catch~ HipLopPass;
#X obj -26 256 +~ 12;
#X floatatom 357 405 5 0 1000 0 - - -;
#X obj 351 504 *~;
#X floatatom 381 504 5 0 1 0 - - -;
#X obj 373 469 hsl 128 15 0 1 0 0 empty BassEcoVolume Bass_Eco_Volume
-2 -8 0 10 -262144 -1 -1 0 1;
#X obj 359 384 hsl 128 15 0 1000 0 0 empty BassEco Eco_delay -2 -8
0 10 -262144 -1 -1 13 1;
#X obj 357 428 vd~ bassDelay 2000;
#X obj -50 584 delwrite~ bassDelay 2000;
#X obj 13 178 phasor~ 14;
#X floatatom -37 1 5 0 0 0 - adsrBassMultipy -;
#X obj -37 24 \$4;
#X obj -104 134 \$3;
#X obj -144 136 \$2;
#X floatatom -172 167 5 0 0 0 - - -;
#X floatatom -136 170 5 0 0 0 - - -;
#X msg 262 96 $f1 \, $f2 $f3;
#X obj -170 136 \$1;
#X obj -150 17 r adsrBass;
#X msg 234 49 1 200 \, 0 1 200;
#X obj -183 201 bng 15 250 50 0 empty bangBass empty 17 7 0 10 -262144
-1 -1;
#X obj -181 251 print;
#X floatatom -100 168 5 0 0 0 - - -;
#X obj -180 221 pack f f f;
#X msg 11 78 \$1 \, \$2 \$3;
#X obj -117 44 r adsrBassMultipy;
#X obj -117 72 expr 100 * $f4;
#X obj -261 373 < 500;
#X obj -305 373 > 500;
#X connect 1 0 14 0;
#X connect 2 0 42 0;
#X connect 3 0 24 1;
#X connect 4 0 3 0;
#X connect 5 0 6 0;
#X connect 6 0 32 0;
#X connect 7 0 9 1;
#X connect 8 0 22 0;
#X connect 9 0 24 0;
#X connect 10 0 15 0;
#X connect 11 0 10 0;
#X connect 12 0 15 1;
#X connect 13 0 0 0;
#X connect 13 0 0 1;
#X connect 14 0 13 1;
#X connect 15 0 14 1;
#X connect 16 0 19 1;
#X connect 16 0 50 0;
#X connect 16 0 51 0;
#X connect 17 0 16 0;
#X connect 18 0 21 1;
#X connect 19 0 13 0;
#X connect 19 0 31 0;
#X connect 20 0 21 1;
#X connect 21 0 19 0;
#X connect 23 0 21 0;
#X connect 24 0 8 0;
#X connect 25 0 30 0;
#X connect 26 0 13 0;
#X connect 27 0 26 1;
#X connect 28 0 27 0;
#X connect 29 0 25 0;
#X connect 30 0 26 0;
#X connect 32 0 9 0;
#X connect 33 0 34 0;
#X connect 34 0 49 3;
#X connect 35 0 45 0;
#X connect 37 0 46 0;
#X connect 38 0 46 1;
#X connect 39 0 1 0;
#X connect 40 0 37 0;
#X connect 41 0 40 0;
#X connect 41 0 36 0;
#X connect 43 0 46 0;
#X connect 45 0 46 2;
#X connect 46 0 44 0;
#X connect 46 0 47 0;
#X connect 47 0 1 0;
#X connect 48 0 49 0;
#X connect 49 0 35 0;
#X connect 50 0 18 0;
#X connect 51 0 20 0;
#X restore 713 28 pd bass;
#N canvas 4 397 1421 837 snare 0;
#X obj 246 662 dac~;
#X obj 281 93 bng 15 250 50 0 empty empty empty 17 7 0 10 -262144 -1
-1;
#X obj 248 603 *~;
#X floatatom 435 264 5 0 1 0 - - -;
#X obj 439 242 hsl 128 15 0 1 0 0 empty SnareVolume Snare_Volume -2
-8 0 10 -262144 -1 -1 7737 1;
#X obj 210 197 vline~;
#X obj 79 222 noise~;
#X obj 81 295 *~;
#X obj 79 245 hip~ 1000;
#X obj 309 198 vline~;
#X floatatom 24 414 5 0 0 0 - - -;
#X obj 27 387 hsl 128 15 200 16000 0 0 empty SnareHipLop SnareHipLop
-2 -8 0 10 -262144 -1 -1 796 1;
#X obj 184 315 *~;
#X obj 202 361 +~;
#X obj 281 307 *~;
#X msg 308 173 1 20 \, 0 1 50;
#X obj 79 270 lop~ 5000;
#X obj 111 296 osc~ 20;
#X obj 278 234 phasor~ 80;
#X obj 435 289 *~;
#X floatatom 546 289 5 0 1 0 Overal_Volume Volume -;
#X obj 88 490 lop~;
#X floatatom 20 485 5 0 0 0 - - -;
#X obj 79 426 spigot~;
#X obj 121 491 hip~;
#X floatatom -25 483 5 0 0 0 - - -;
#X obj 140 425 spigot~;
#X obj 463 688;
#X msg 462 705;
#X obj 74 621 delwrite~ snareDelay 2000;
#X obj 430 742;
#X floatatom 527 414 5 0 1000 0 - - -;
#X obj 521 513 *~;
#X floatatom 551 513 5 0 1 0 - - -;
#X obj 543 478 hsl 128 15 0 1 0 0 empty SnareEcoVolume Snare_Eco_Volume
-2 -8 0 10 -262144 -1 -1 0 1;
#X obj 527 437 vd~ snareDelay 2000;
#X obj 529 393 hsl 128 15 0 1000 0 0 empty SnareEco Eco_delay -2 -8
0 10 -262144 -1 -1 0 1;
#X floatatom 86 26 5 0 0 0 - adsrSnareMultipy -;
#X obj 86 49 \$4;
#X obj 19 159 \$3;
#X obj -21 161 \$2;
#X floatatom -49 192 5 0 0 0 - - -;
#X floatatom -13 195 5 0 0 0 - - -;
#X obj -47 161 \$1;
#X obj 261 9 bng 15 250 50 0 empty bangSnare empty 17 7 0 10 -262144
-1 -1;
#X obj -58 276 print;
#X floatatom 23 193 5 0 0 0 - - -;
#X obj -57 246 pack f f f;
#X obj 6 97 expr 100 * $f4;
#X obj -27 42 r adsrSnare;
#X obj 6 69 r adsrSnareMultipy;
#X msg 157 124 \$1 \$3 \, \$2 \$1 \$3;
#X msg 209 172 \$1 \, \$2 \$3;
#X obj 21 448 < 500;
#X obj -27 447 > 500;
#X connect 1 0 15 0;
#X connect 2 0 0 0;
#X connect 2 0 0 1;
#X connect 3 0 19 0;
#X connect 4 0 3 0;
#X connect 5 0 12 1;
#X connect 6 0 8 0;
#X connect 7 0 12 0;
#X connect 8 0 16 0;
#X connect 9 0 14 1;
#X connect 10 0 21 1;
#X connect 10 0 24 1;
#X connect 10 0 53 0;
#X connect 10 0 54 0;
#X connect 11 0 10 0;
#X connect 12 0 13 0;
#X connect 13 0 23 0;
#X connect 13 0 26 0;
#X connect 14 0 13 0;
#X connect 15 0 9 0;
#X connect 16 0 7 0;
#X connect 17 0 7 1;
#X connect 18 0 14 0;
#X connect 19 0 2 1;
#X connect 20 0 19 1;
#X connect 21 0 2 0;
#X connect 21 0 29 0;
#X connect 22 0 26 1;
#X connect 23 0 21 0;
#X connect 24 0 2 0;
#X connect 24 0 29 0;
#X connect 25 0 23 1;
#X connect 26 0 24 0;
#X connect 31 0 35 0;
#X connect 32 0 2 0;
#X connect 33 0 32 1;
#X connect 34 0 33 0;
#X connect 35 0 32 0;
#X connect 36 0 31 0;
#X connect 37 0 38 0;
#X connect 38 0 48 3;
#X connect 39 0 46 0;
#X connect 41 0 47 0;
#X connect 42 0 47 1;
#X connect 43 0 41 0;
#X connect 44 0 47 0;
#X connect 44 0 1 0;
#X connect 46 0 47 2;
#X connect 47 0 45 0;
#X connect 47 0 52 0;
#X connect 48 0 39 0;
#X connect 49 0 43 0;
#X connect 49 0 40 0;
#X connect 50 0 48 0;
#X connect 52 0 5 0;
#X connect 53 0 22 0;
#X connect 54 0 25 0;
#X restore 713 9 pd snare;
#X obj 788 344 bng 15 250 50 0 bangBass empty empty 17 7 0 10 -262144
-1 -1;
#X obj 631 274 spigot;
#X obj 237 363 tgl 32 1 play2 empty empty 17 7 0 10 -262144 -1 -1 0
6;
#X obj 269 363 tgl 32 1 play3 empty empty 17 7 0 10 -262144 -1 -1 0
6;
#X obj 301 363 tgl 32 1 play4 empty empty 17 7 0 10 -262144 -1 -1 6
6;
#X obj 333 363 tgl 32 1 play5 empty empty 17 7 0 10 -262144 -1 -1 0
6;
#X obj 365 363 tgl 32 1 play6 empty empty 17 7 0 10 -262144 -1 -1 6
6;
#X obj 397 363 tgl 32 1 play7 empty empty 17 7 0 10 -262144 -1 -1 6
6;
#X obj 429 363 tgl 32 1 play8 empty empty 17 7 0 10 -262144 -1 -1 6
6;
#X floatatom 636 249 5 0 0 0 - play1 -;
#X obj 676 274 spigot;
#X floatatom 680 247 5 0 0 0 - play2 -;
#X obj 720 274 spigot;
#X floatatom 724 249 5 0 0 0 - play3 -;
#X obj 765 274 spigot;
#X floatatom 769 249 5 0 0 0 - play4 -;
#X obj 810 274 spigot;
#X floatatom 814 250 5 0 0 0 - play5 -;
#X obj 855 274 spigot;
#X floatatom 858 251 5 0 0 0 - play6 -;
#X obj 898 275 spigot;
#X floatatom 900 250 5 0 0 0 - play7 -;
#X obj 943 275 spigot;
#X floatatom 946 250 5 0 0 0 - play8 -;
#X floatatom 636 170 5 0 0 0 - select -;
#X obj 205 326 tgl 32 1 play17 empty empty 17 7 0 10 -262144 -1 -1
0 2;
#X obj 237 326 tgl 32 1 play18 empty empty 17 7 0 10 -262144 -1 -1
6 6;
#X obj 269 326 tgl 32 1 play19 empty empty 17 7 0 10 -262144 -1 -1
6 6;
#X obj 301 326 tgl 32 1 play20 empty empty 17 7 0 10 -262144 -1 -1
0 6;
#X obj 333 326 tgl 32 1 play21 empty empty 17 7 0 10 -262144 -1 -1
6 6;
#X obj 365 326 tgl 32 1 play22 empty empty 17 7 0 10 -262144 -1 -1
0 6;
#X obj 397 326 tgl 32 1 play23 empty empty 17 7 0 10 -262144 -1 -1
0 6;
#X obj 429 326 tgl 32 1 play24 empty empty 17 7 0 10 -262144 -1 -1
0 6;
#X obj 631 414 spigot;
#X floatatom 634 391 5 0 0 0 - play17 -;
#X obj 676 414 spigot;
#X floatatom 679 389 5 0 0 0 - play18 -;
#X obj 720 414 spigot;
#X floatatom 725 389 5 0 0 0 - play19 -;
#X obj 765 414 spigot;
#X floatatom 770 389 5 0 0 0 - play20 -;
#X obj 810 414 spigot;
#X floatatom 813 388 5 0 0 0 - play21 -;
#X obj 855 414 spigot;
#X floatatom 858 388 5 0 0 0 - play22 -;
#X obj 898 415 spigot;
#X floatatom 902 388 5 0 0 0 - play23 -;
#X obj 943 415 spigot;
#X floatatom 945 388 5 0 0 0 - play24 -;
#X obj 794 474 bng 15 250 50 0 bangSnare empty empty 17 7 0 10 -262144
-1 -1;
#X obj 637 51 metro;
#X obj -65 233 hsl 128 30 0 0.99 0 0 Volume empty Volume -2 -8 0 10
-262144 -1 -1 12700 1;
#X obj 171 328 vsl 30 27 0 0.99 0 0 SnareVolume empty empty 0 -9 0
8 -204786 -1 -1 1600 1;
#X obj 171 365 vsl 30 27 0 0.99 0 0 BassVolume empty empty 0 -9 0 8
-204786 -1 -1 700 1;
#X obj 87 362 hsl 32 32 0 126 0 0 BassModulatorVolume empty Md_Vol
-2 -8 0 10 -261682 -1 -1 3100 1;
#X obj 1 362 hsl 32 32 1 200 0 0 BassModulatorFrequency empty Md_Frq
-2 -8 0 10 -261682 -1 -1 600 1;
#X obj 131 326 hsl 32 32 100 17000 0 0 SnareHipLop empty empty -2 -8
0 10 -260097 -1 -1 200 1;
#X obj 131 362 hsl 32 32 100 1000 0 0 BassHipLop empty empty -2 -8
0 10 -260097 -1 -1 0 1;
#X obj -42 326 hsl 32 32 0 1 0 0 SnareEcoVolume empty empty -2 -8 0
10 -204800 -1 -1 0 1;
#X obj -84 326 hsl 32 32 0 1000 0 0 SnareEco empty empty -2 -8 0 10
-204800 -1 -1 0 1;
#X obj -42 361 hsl 32 32 0 1 0 0 BassEcoVolume empty empty -2 -8 0
10 -204800 -1 -1 0 1;
#X obj -84 361 hsl 32 32 1 1000 0 0 BassEco empty empty -2 -8 0 10
-204800 -1 -1 0 1;
#X obj 205 289 tgl 32 1 play33 empty empty 17 7 0 10 -262144 -1 -1
0 2;
#X obj 237 289 tgl 32 1 play34 empty empty 17 7 0 10 -262144 -1 -1
6 6;
#X obj 269 289 tgl 32 1 play35 empty empty 17 7 0 10 -262144 -1 -1
0 6;
#X obj 301 289 tgl 32 1 play36 empty empty 17 7 0 10 -262144 -1 -1
6 6;
#X obj 333 289 tgl 32 1 play37 empty empty 17 7 0 10 -262144 -1 -1
6 6;
#X obj 365 289 tgl 32 1 play38 empty empty 17 7 0 10 -262144 -1 -1
0 6;
#X obj 397 289 tgl 32 1 play39 empty empty 17 7 0 10 -262144 -1 -1
0 6;
#X obj 429 289 tgl 32 1 play40 empty empty 17 7 0 10 -262144 -1 -1
0 6;
#X obj 869 360 s adsrBass;
#X obj -165 362 hsl 32 32 1 10 0 1 adsrBassMultipy empty ADSR -2 -8
0 10 -232576 -1 -1 200 1;
#N canvas 970 112 751 778 flute 0;
#X obj 91 579 dac~;
#X obj 83 187 line~;
#X obj 100 543 *~;
#X obj 180 199 vline~;
#X obj 145 41 bng 15 250 50 0 empty bang3 empty 17 7 0 10 -262144 -1
-1;
#X msg 185 117 0;
#X msg 216 117 1;
#X obj 73 269 +~;
#X obj -32 189 line~;
#X obj 117 283 *~;
#X obj 81 221 osc~;
#X obj 9 220 osc~;
#X floatatom 314 226 5 0 1 0 - - -;
#X obj 318 204 hsl 128 15 0 1 0 0 empty FluteVolume Flute_Volume -2
-8 0 10 -262144 -1 -1 1934 1;
#X floatatom 429 251 5 0 1 0 Overal_Volume Volume -;
#X obj 313 251 *~;
#X floatatom -118 317 5 0 0 0 - - -;
#X obj -115 290 hsl 128 15 200 16000 0 0 empty FluteHipLop FluteHipLop
-2 -8 0 10 -262144 -1 -1 200 1;
#X obj -54 393 lop~;
#X floatatom -122 388 5 0 0 0 - - -;
#X obj -63 329 spigot~;
#X obj -21 394 hip~;
#X floatatom -167 386 5 0 0 0 - - -;
#X obj -121 351 < 8000;
#X obj -166 351 > 8000;
#X obj -2 328 spigot~;
#X msg 88 102 300 700;
#X floatatom -69 104 5 0 0 0 - - -;
#X msg -29 105 432 500;
#X floatatom 44 103 5 0 0 0 - - -;
#X floatatom -96 160 5 0 0 0 - - -;
#X floatatom -14 56 5 0 0 0 - FlutePitch -;
#X obj -96 134 expr $F1 + $F2;
#X floatatom 3 162 5 0 0 0 - - -;
#X obj 3 134 expr $F1 + $F2;
#X floatatom -51 55 5 0 0 0 - FlutePitch -;
#X floatatom -41 -114 5 0 0 0 - adsrFluteMultipy -;
#X obj -41 -91 \$4;
#X obj -108 19 \$3;
#X obj -148 21 \$2;
#X floatatom -176 52 5 0 0 0 - - -;
#X floatatom -140 55 5 0 0 0 - - -;
#X obj -174 21 \$1;
#X obj -185 136 print;
#X floatatom -104 53 5 0 0 0 - - -;
#X obj -184 106 pack f f f;
#X obj -121 -43 expr 100 * $f4;
#X obj -123 -71 r adsrFluteMultipy;
#X obj -154 -98 r adsrFlute;
#X msg 243 149 \$1 \, \$2 \$3;
#X floatatom 249 322 5 0 1000 0 - - -;
#X obj 243 421 *~;
#X floatatom 273 421 5 0 1 0 - - -;
#X obj 265 386 hsl 128 15 0 1 0 0 empty FluteEcoVolume Flute_Eco_Volume
-2 -8 0 10 -262144 -1 -1 0 1;
#X obj 251 301 hsl 128 15 0 1000 0 0 empty FluteEco Eco_delay -2 -8
0 10 -262144 -1 -1 0 1;
#X obj 249 345 vd~ fluteDelay 2000;
#X obj -64 543 delwrite~ fluteDelay 2000;
#X connect 1 0 10 0;
#X connect 2 0 0 0;
#X connect 2 0 0 1;
#X connect 3 0 9 0;
#X connect 4 0 29 0;
#X connect 4 0 26 0;
#X connect 4 0 27 0;
#X connect 4 0 28 0;
#X connect 5 0 3 0;
#X connect 6 0 3 0;
#X connect 7 0 20 0;
#X connect 7 0 25 0;
#X connect 8 0 11 0;
#X connect 9 0 2 1;
#X connect 10 0 7 0;
#X connect 11 0 7 0;
#X connect 12 0 15 0;
#X connect 13 0 12 0;
#X connect 14 0 15 1;
#X connect 15 0 9 1;
#X connect 16 0 18 1;
#X connect 16 0 23 0;
#X connect 16 0 24 0;
#X connect 16 0 21 1;
#X connect 17 0 16 0;
#X connect 18 0 2 0;
#X connect 18 0 56 0;
#X connect 19 0 25 1;
#X connect 20 0 18 0;
#X connect 21 0 2 0;
#X connect 21 0 56 0;
#X connect 22 0 20 1;
#X connect 23 0 19 0;
#X connect 24 0 22 0;
#X connect 25 0 21 0;
#X connect 26 0 1 0;
#X connect 27 0 32 0;
#X connect 28 0 8 0;
#X connect 29 0 34 0;
#X connect 30 0 8 0;
#X connect 31 0 32 1;
#X connect 32 0 30 0;
#X connect 33 0 1 0;
#X connect 34 0 33 0;
#X connect 35 0 34 1;
#X connect 36 0 37 0;
#X connect 37 0 46 3;
#X connect 38 0 44 0;
#X connect 40 0 45 0;
#X connect 41 0 45 1;
#X connect 42 0 40 0;
#X connect 44 0 45 2;
#X connect 45 0 43 0;
#X connect 45 0 49 0;
#X connect 46 0 38 0;
#X connect 47 0 46 0;
#X connect 48 0 42 0;
#X connect 48 0 39 0;
#X connect 49 0 3 0;
#X connect 50 0 55 0;
#X connect 51 0 2 0;
#X connect 52 0 51 1;
#X connect 53 0 52 0;
#X connect 54 0 50 0;
#X connect 55 0 51 0;
#X restore 713 48 pd flute;
#X obj 630 530 spigot;
#X floatatom 633 507 5 0 0 0 - play33 -;
#X obj 675 530 spigot;
#X floatatom 678 505 5 0 0 0 - play34 -;
#X obj 719 530 spigot;
#X floatatom 724 505 5 0 0 0 - play35 -;
#X obj 764 530 spigot;
#X floatatom 769 505 5 0 0 0 - play36 -;
#X obj 809 530 spigot;
#X floatatom 812 504 5 0 0 0 - play37 -;
#X obj 854 530 spigot;
#X floatatom 857 504 5 0 0 0 - play38 -;
#X obj 897 531 spigot;
#X floatatom 901 504 5 0 0 0 - play39 -;
#X obj 942 531 spigot;
#X floatatom 944 504 5 0 0 0 - play40 -;
#X obj 793 590 bng 15 250 50 0 bang3 empty empty 17 7 0 10 -262144
-1 -1;
#X obj 171 291 vsl 30 27 0 0.99 0 0 FluteVolume empty Volume 0 -9 0
8 -204786 -1 -1 400 1;
#X obj 131 289 hsl 32 32 100 17000 0 0 FluteHipLop empty LopHip -2
-8 0 10 -260097 -1 -1 300 1;
#X obj -124 290 hsl 32 32 0 1000 0 1 FlutePitch empty Pitch -2 -8 0
10 -261234 -1 -1 500 1;
#X obj 44 362 hsl 32 32 0 50 0 0 BassCarrierFrequency empty Cr_Frq
-2 -8 0 10 -261682 -1 -1 1600 1;
#X msg 868 334 1 0 500;
#X text 587 276 Bass;
#X text 581 413 Snare;
#X text 586 528 Flute;
#X obj -165 326 hsl 32 32 1 10 0 1 adsrSnareMultipy empty empty -2
-8 0 10 -232576 -1 -1 100 1;
#X msg 884 448 1 0 500;
#X obj 885 474 s adsrSnare;
#X obj -165 290 hsl 32 32 1 10 0 1 adsrFluteMultipy empty ADSR -2 -8
0 10 -232576 -1 -1 500 1;
#X msg 887 574 1 0 500;
#X obj 888 600 s adsrFlute;
#X obj -42 290 hsl 32 32 0 1 0 0 FluteEcoVolume empty EcoVol -2 -8
0 10 -204800 -1 -1 0 1;
#X obj -84 290 hsl 32 32 0 1000 0 0 FluteEco empty Eco -2 -8 0 10 -204800
-1 -1 0 1;
#X obj -68 172 tgl 40 0 ON empty On/Off 4 -8 0 10 -204786 -1 -1 1 1
;
#X connect 0 0 62 0;
#X connect 1 0 5 0;
#X connect 3 0 13 0;
#X connect 3 0 45 0;
#X connect 3 0 85 0;
#X connect 3 1 22 0;
#X connect 3 1 47 0;
#X connect 3 1 87 0;
#X connect 3 2 24 0;
#X connect 3 2 49 0;
#X connect 3 2 89 0;
#X connect 3 3 26 0;
#X connect 3 3 51 0;
#X connect 3 3 91 0;
#X connect 3 4 28 0;
#X connect 3 4 53 0;
#X connect 3 4 93 0;
#X connect 3 5 30 0;
#X connect 3 5 55 0;
#X connect 3 5 95 0;
#X connect 3 6 32 0;
#X connect 3 6 57 0;
#X connect 3 6 97 0;
#X connect 3 7 34 0;
#X connect 3 7 59 0;
#X connect 3 7 99 0;
#X connect 4 0 2 0;
#X connect 5 0 4 0;
#X connect 8 0 62 1;
#X connect 12 0 106 0;
#X connect 13 0 12 0;
#X connect 21 0 13 1;
#X connect 22 0 12 0;
#X connect 23 0 22 1;
#X connect 24 0 12 0;
#X connect 25 0 24 1;
#X connect 26 0 12 0;
#X connect 27 0 26 1;
#X connect 28 0 12 0;
#X connect 29 0 28 1;
#X connect 30 0 12 0;
#X connect 31 0 30 1;
#X connect 32 0 12 0;
#X connect 33 0 32 1;
#X connect 34 0 12 0;
#X connect 35 0 34 1;
#X connect 36 0 3 0;
#X connect 45 0 61 0;
#X connect 46 0 45 1;
#X connect 47 0 61 0;
#X connect 48 0 47 1;
#X connect 49 0 61 0;
#X connect 50 0 49 1;
#X connect 51 0 61 0;
#X connect 52 0 51 1;
#X connect 53 0 61 0;
#X connect 54 0 53 1;
#X connect 55 0 61 0;
#X connect 56 0 55 1;
#X connect 57 0 61 0;
#X connect 58 0 57 1;
#X connect 59 0 61 0;
#X connect 60 0 59 1;
#X connect 61 0 111 0;
#X connect 62 0 1 0;
#X connect 85 0 101 0;
#X connect 86 0 85 1;
#X connect 87 0 101 0;
#X connect 88 0 87 1;
#X connect 89 0 101 0;
#X connect 90 0 89 1;
#X connect 91 0 101 0;
#X connect 92 0 91 1;
#X connect 93 0 101 0;
#X connect 94 0 93 1;
#X connect 95 0 101 0;
#X connect 96 0 95 1;
#X connect 97 0 101 0;
#X connect 98 0 97 1;
#X connect 99 0 101 0;
#X connect 100 0 99 1;
#X connect 101 0 114 0;
#X connect 106 0 82 0;
#X connect 111 0 112 0;
#X connect 114 0 115 0;
