#N canvas 383 270 528 333 10;
#X obj 36 79 send a;
#X obj 102 149 receive a;
#X msg 34 34 1 5 \, 0 20 5;
#X obj 47 153 noise~;
#X obj 47 206 *~;
#X obj 102 180 vline~;
#X obj 46 232 dac~;
#X obj 282 150 noise~;
#X obj 282 203 *~;
#X obj 337 177 vline~;
#X obj 281 229 dac~;
#X obj 271 76 send b;
#X obj 337 96 receive b;
#X msg 337 143 \$1 \$2 \, \$3 \$4 \$5;
#X msg 271 45 1 5 0 20 5;
#X connect 1 0 5 0;
#X connect 2 0 0 0;
#X connect 3 0 4 0;
#X connect 4 0 6 0;
#X connect 4 0 6 1;
#X connect 5 0 4 1;
#X connect 7 0 8 0;
#X connect 8 0 10 0;
#X connect 8 0 10 1;
#X connect 9 0 8 1;
#X connect 12 0 13 0;
#X connect 13 0 9 0;
#X connect 14 0 11 0;
